<?xml version="1.0" encoding="UTF-8" standalone="no"?>
<!-- Created with Inkscape (http://www.inkscape.org/) -->

<svg
   width="118.82527mm"
   height="68.615372mm"
   viewBox="0 0 118.82527 68.615372"
   version="1.1"
   id="svg1"
   xml:space="preserve"
   inkscape:version="1.4.2 (ebf0e940, 2025-05-08)"
   sodipodi:docname="drawing.svg"
   inkscape:export-filename="fxdb_logo.jpg"
   inkscape:export-xdpi="96"
   inkscape:export-ydpi="96"
   xmlns:inkscape="http://www.inkscape.org/namespaces/inkscape"
   xmlns:sodipodi="http://sodipodi.sourceforge.net/DTD/sodipodi-0.dtd"
   xmlns="http://www.w3.org/2000/svg"
   xmlns:svg="http://www.w3.org/2000/svg"><sodipodi:namedview
     id="namedview1"
     pagecolor="#ffffff"
     bordercolor="#000000"
     borderopacity="0.25"
     inkscape:showpageshadow="2"
     inkscape:pageopacity="0.0"
     inkscape:pagecheckerboard="0"
     inkscape:deskcolor="#d1d1d1"
     inkscape:document-units="mm"
     inkscape:zoom="0.69400036"
     inkscape:cx="54.755015"
     inkscape:cy="116.71464"
     inkscape:window-width="1296"
     inkscape:window-height="1095"
     inkscape:window-x="0"
     inkscape:window-y="50"
     inkscape:window-maximized="0"
     inkscape:current-layer="layer1" /><defs
     id="defs1" /><g
     inkscape:label="Layer 1"
     inkscape:groupmode="layer"
     id="layer1"
     transform="translate(-74.316628,-114.19232)"><path
       style="fill:#002d68;fill-opacity:1;stroke-width:0.895511"
       d="m 102.93516,182.58591 c -0.41892,-0.1211 -5.21691,-2.79356 -10.66218,-5.93881 -17.383942,-10.04115 -16.529087,-9.49276 -17.433633,-11.18373 l -0.522719,-0.97719 v -15.87479 c 0,-15.81249 0.0018,-15.87851 0.511408,-16.82254 0.28128,-0.52126 0.814387,-1.23123 1.184689,-1.5777 0.589829,-0.55187 22.764028,-13.62394 25.827995,-15.22603 1.47964,-0.7737 3.02708,-0.98392 4.55119,-0.61829 0.81397,0.19527 5.25701,2.64533 13.80111,7.61043 6.93037,4.02735 12.95526,7.5929 13.38865,7.92346 0.43339,0.33057 1.08357,1.10387 1.44483,1.71845 l 0.65687,1.11742 v 15.8748 15.87479 l -0.5296,0.99066 c -0.93633,1.75148 -0.40026,1.41347 -20.85219,13.14819 -3.41979,1.96217 -6.61844,3.71056 -7.10812,3.88529 -1.01658,0.36277 -3.13476,0.40036 -4.2583,0.0756 z"
       id="path2"
       sodipodi:nodetypes="ssscscsssssscccsssss" /><text
       xml:space="preserve"
       style="font-style:normal;font-variant:normal;font-weight:normal;font-stretch:normal;font-size:50.8px;font-family:Roboto;-inkscape-font-specification:Roboto;text-align:start;writing-mode:lr-tb;direction:ltr;text-anchor:start;fill:#ffffff;stroke-width:0.264583"
       x="82.81221"
       y="167.81046"
       id="text1"><tspan
         sodipodi:role="line"
         id="tspan1"
         x="82.81221"
         y="167.81046"
         style="font-style:normal;font-variant:normal;font-weight:bold;font-stretch:normal;font-size:50.8px;font-family:Roboto;-inkscape-font-specification:'Roboto Bold';fill:#ffffff;stroke-width:0.264583">fx</tspan></text><text
       xml:space="preserve"
       style="font-style:normal;font-variant:normal;font-weight:bold;font-stretch:normal;font-size:50.8px;font-family:Roboto;-inkscape-font-specification:'Roboto Bold';text-align:start;writing-mode:lr-tb;direction:ltr;text-anchor:start;fill:#002d68;fill-opacity:1;stroke-width:0.264583"
       x="137.62901"
       y="167.30196"
       id="text2"><tspan
         sodipodi:role="line"
         id="tspan2"
         style="stroke-width:0.264583"
         x="137.62901"
         y="167.30196">db</tspan></text></g></svg>
